<?xml version="1.0" encoding="UTF-8" standalone="no"?>
<!DOCTYPE svg PUBLIC "-//W3C//DTD SVG 1.1//EN" "http://www.w3.org/Graphics/SVG/1.1/DTD/svg11.dtd">
<svg version="1.1" xmlns="http://www.w3.org/2000/svg" xmlns:xlink="http://www.w3.org/1999/xlink" preserveAspectRatio="xMidYMid meet" viewBox="0 0 640 640" width="120" height="120"><defs><path d="M53.11 106.67C23.78 106.67 0 130.44 0 159.78C0 191.82 0 448.18 0 480.22C0 509.56 23.78 533.33 53.11 533.33C85.16 533.33 341.51 533.33 373.56 533.33C402.89 533.33 426.67 509.56 426.67 480.22C426.67 448.18 426.67 191.82 426.67 159.78C426.67 130.44 402.89 106.67 373.56 106.67C309.47 106.67 85.16 106.67 53.11 106.67ZM462.22 232.56L462.22 407.44C535.29 457.78 575.88 485.74 584 491.33C607.56 507.56 640 491 640 462.67C640 434.12 640 205.77 640 177.22C640 149 607.67 132.33 584 148.56C567.76 159.76 527.17 187.76 462.22 232.56Z" id="dtA9D4fEs"></path></defs><g><g><g><use xlink:href="#dtA9D4fEs" opacity="1" fill="#ff7d04" fill-opacity="1"></use><g><use xlink:href="#dtA9D4fEs" opacity="1" fill-opacity="0" stroke="#000000" stroke-width="1" stroke-opacity="0"></use></g></g></g></g></svg>